<?xml version="1.0" standalone="no"?>
<!DOCTYPE svg PUBLIC "-//W3C//DTD SVG 20010904//EN"
 "http://www.w3.org/TR/2001/REC-SVG-20010904/DTD/svg10.dtd">
<svg version="1.0" xmlns="http://www.w3.org/2000/svg"
 width="216.000000pt" height="216.000000pt" viewBox="0 0 216.000000 216.000000"
 preserveAspectRatio="xMidYMid meet">
<metadata>
Created by potrace 1.11, written by Peter Selinger 2001-2013
</metadata>
<g transform="translate(0.000000,216.000000) scale(0.100000,-0.100000)"
fill="#000000" stroke="none">
<path d="M0 1075 l0 -335 100 0 100 0 0 145 0 145 95 0 95 0 0 -145 0 -145 95
0 95 0 0 335 0 335 -95 0 -95 0 0 -140 0 -140 -95 0 -95 0 0 140 0 140 -100 0
-100 0 0 -335z"/>
<path d="M690 1220 l0 -190 95 0 95 0 0 -145 0 -145 140 0 139 0 3 143 3 142
93 3 92 3 0 189 0 190 -140 0 -140 0 0 -145 0 -145 -95 0 -95 0 0 145 0 145
-95 0 -95 0 0 -190z"/>
<path d="M1460 1360 l0 -50 95 0 95 0 0 -285 0 -285 140 0 140 0 0 285 0 284
93 3 92 3 3 48 3 47 -330 0 -331 0 0 -50z"/>
</g>
</svg>
